<svg width="21" height="21" fill="none" xmlns="http://www.w3.org/2000/svg"><path d="M2.91 2.806h0l-.008.007c-2.845 2.86-3.217 7.29-.827 10.417 1.81 2.459 5.46 4.455 9.793 2.584.712-.307 1.489-.2 1.947.291l.182.195c.418.449.842.904 1.295 1.36.44.442.85.882 1.267 1.328l.511.547c.62.658 1.663.707 2.32.048.688-.69.737-1.849.024-2.564a244.086 244.086 0 00-3.328-3.29c-.479-.462-.611-1.21-.35-1.888.744-1.938.908-3.812.485-5.494-.424-1.685-1.428-3.143-2.957-4.257C10.047-.304 5.757.062 2.91 2.806zm5.704.299c2.946 0 5.305 2.454 5.305 5.448 0 3.093-2.346 5.448-5.416 5.448a5.4 5.4 0 01-5.417-5.448c0-3.081 2.446-5.448 5.528-5.448z" fill="#1D4076" stroke="#1D4076"/></svg>